<!DOCTYPE svg PUBLIC "-//W3C//DTD SVG 1.1//EN" "http://www.w3.org/Graphics/SVG/1.1/DTD/svg11.dtd">
<!-- Uploaded to: SVG Repo, www.svgrepo.com, Transformed by: SVG Repo Mixer Tools -->
<svg fill="#000000" width="204px" height="204px" viewBox="-2.4 -2.4 28.80 28.80" role="img" xmlns="http://www.w3.org/2000/svg" stroke="#000000" transform="matrix(-1, 0, 0, 1, 0, 0)" stroke-width="0.00024000000000000003">
<g id="SVGRepo_bgCarrier" stroke-width="0" transform="translate(4.199999999999999,4.199999999999999), scale(0.65)">
<rect x="-2.4" y="-2.4" width="28.80" height="28.80" rx="0" fill="#ffffff" strokewidth="0"/>
</g>
<g id="SVGRepo_tracerCarrier" stroke-linecap="round" stroke-linejoin="round" stroke="#CCCCCC" stroke-width="0.048"/>
<g id="SVGRepo_iconCarrier">
<path d="M4.006 0v1.6h15.988V0zm15.988 1.6v1.6h1.6V1.6zm1.6 1.6v14.4h-1.6v1.6H4.006v-1.6h-1.6V3.2H.809v17.6h1.599v1.6h1.599V24h15.988v-1.6h1.6v-1.6h1.598V3.2zm-19.187 0h1.599V1.6h-1.6zm4.796 3.2v6.4h1.6V6.4zm7.995 0v6.4h1.599V6.4z"/>
</g>
</svg>